<svg aria-hidden="true" style="position: absolute; width: 0; height: 0; overflow: hidden;" version="1.1" xmlns="http://www.w3.org/2000/svg" xmlns:xlink="http://www.w3.org/1999/xlink">
<defs>
<symbol id="turochka" viewBox="0 0 32 32">
<path d="M17.68 1.38c0.050 0.7-0.1 1.040-1.060 2.37-0.61 0.85-1.22 1.96-1.22 2.22 0 0.070-0.1 0.15-0.22 0.17-1.39 0.29-1.85 0.41-2.56 0.7-1.22 0.5-2.34 1.21-3.31 2.13-1.020 0.95-1.75 1.96-2.36 3.26-0.65 1.36-0.86 2.27-0.92 3.92-0.060 1.61 0.1 2.72 0.57 3.92l0.28 0.73h-1.1c-0.6 0-1.18 0.050-1.29 0.1-0.18 0.1-0.19 0.24-0.19 2.54 0 2.070 0.020 2.45 0.15 2.56s2.46 0.12 11.82 0.080c11.22-0.060 11.67-0.060 11.81-0.24 0.19-0.27 0.14-4.73-0.070-4.97-0.11-0.14-0.33-0.17-1.13-0.17-0.91 0-1-0.020-0.93-0.18 0.69-1.7 0.88-2.6 0.88-4.27 0-2.59-0.82-4.74-2.61-6.82l-0.62-0.72 0.52-0.39c0.29-0.21 1.15-0.83 1.91-1.37s1.4-1.020 1.44-1.080c0.030-0.050-0.17-0.32-0.46-0.6l-0.51-0.52-0.67 0.65c-0.38 0.36-1.18 1.14-1.79 1.73l-1.11 1.090-0.61-0.41c-0.33-0.23-0.93-0.57-1.34-0.76-0.7-0.32-2.34-0.85-2.64-0.85-0.080 0 0.030-0.24 0.28-0.6 0.5-0.71 0.6-1.4 0.33-2.050l-0.17-0.4-0.26 0.5c-0.13 0.27-0.5 0.79-0.8 1.15-0.31 0.36-0.64 0.8-0.75 0.97-0.17 0.29-0.57 0.47-0.57 0.25 0-0.040 0.32-0.45 0.72-0.92 1.31-1.56 1.58-2.16 1.38-3.010-0.11-0.47-0.61-1.29-0.78-1.29-0.050 0-0.060 0.26-0.040 0.58zM16.42 6.95c-0.050 0.29-0.32 0.34-0.32 0.070 0-0.22 0.080-0.32 0.25-0.32 0.080 0 0.1 0.1 0.070 0.25zM15.18 7.070c-0.030 0.24-0.1 0.28-0.78 0.44-1.1 0.26-2.13 0.72-3.14 1.4-0.82 0.55-0.89 0.58-1.010 0.42-0.17-0.23-0.090-0.33 0.65-0.83 1.060-0.72 2.59-1.39 3.65-1.6 0.65-0.13 0.67-0.12 0.63 0.17zM19.010 7c0.41 0.1 1.020 0.31 1.37 0.45 0.66 0.27 2.020 1.050 2.020 1.15 0 0.040-0.080 0.14-0.17 0.22-0.16 0.14-0.25 0.11-1.030-0.33-0.92-0.54-2.32-1.030-3.22-1.14l-0.57-0.070 0.16-0.24c0.19-0.3 0.45-0.3 1.44-0.040zM16.14 7.67c0.11 0.67 0.090 0.73-0.23 0.73-0.26 0-0.31-0.050-0.45-0.47-0.22-0.63-0.21-0.63 0.23-0.63 0.37 0 0.39 0.020 0.45 0.37zM17.3 7.37c0 0.040-0.070 0.27-0.16 0.5l-0.17 0.44-0.23-0.38c-0.33-0.54-0.31-0.63 0.16-0.63 0.22 0 0.4 0.030 0.4 0.070zM19.37 9.12c-0.030 0.070-0.26 0.64-0.52 1.26l-0.48 1.12-1.86-0.020-1.85-0.030-0.52-1.23-0.52-1.22h2.9c2.28 0 2.89 0.030 2.85 0.12zM24.7 11.010c0.81 1.21 1.33 2.62 1.55 4.21 0.060 0.48 0.060 0.48-0.22 0.48s-0.29-0.020-0.41-0.79c-0.3-1.88-1.050-3.39-2.39-4.81l-0.64-0.68 0.23-0.16c0.22-0.15 0.24-0.14 0.76 0.37 0.29 0.28 0.8 0.91 1.12 1.38zM22.22 9.37c0.15 0.17 0.070 0.25-0.99 1.11-0.77 0.63-1.2 0.91-1.31 0.87-0.12-0.040 0.090-0.31 0.88-1.1 0.58-0.58 1.1-1.050 1.16-1.050s0.18 0.080 0.26 0.17zM9.91 9.66c0.18 0.16 0.15 0.2-0.42 0.83-1.090 1.18-1.82 2.67-2.15 4.34-0.16 0.8-0.19 0.87-0.41 0.87-0.28 0-0.29-0.12-0.080-1.070 0.26-1.24 0.8-2.52 1.48-3.53 0.35-0.52 1.26-1.6 1.35-1.6 0.030 0 0.14 0.070 0.23 0.16zM19.74 11.72c0.15 0.24-0.030 0.52-0.37 0.56-0.33 0.040-0.53-0.28-0.37-0.59 0.14-0.25 0.58-0.23 0.74 0.030zM18 11.95v0.25h-1.5c-1.39 0-1.5-0.010-1.5-0.18 0-0.1 0.030-0.22 0.070-0.25 0.030-0.040 0.71-0.070 1.5-0.070h1.43v0.25zM19.96 15.95c1.040 2.29 1.53 3.47 1.49 3.62-0.030 0.12-0.17 0.35-0.31 0.53-0.52 0.61-0.47 0.6-4.63 0.6h-3.79l-0.32-0.26c-0.17-0.15-0.4-0.44-0.51-0.65l-0.19-0.39 1.46-3.37c0.8-1.86 1.48-3.41 1.51-3.46 0.020-0.040 0.88-0.060 1.89-0.050l1.85 0.030 1.55 3.4zM7.2 16.85c0 0.98 0.23 2.090 0.65 3.13l0.33 0.83-0.3-0.030c-0.27-0.030-0.33-0.1-0.58-0.74-0.33-0.81-0.55-1.85-0.65-2.96-0.080-0.86-0.040-0.98 0.31-0.98 0.23 0 0.24 0.020 0.24 0.75zM26.26 16.97c-0.070 1.070-0.26 1.87-0.67 2.93-0.3 0.79-0.31 0.8-0.65 0.8h-0.34l0.21-0.42c0.5-0.98 0.89-2.5 0.89-3.47 0-0.65 0.030-0.71 0.38-0.71h0.25l-0.070 0.87zM6.5 22.6v1.3h-1.13l0.060-0.9c0.060-0.88 0.050-0.9-0.17-0.96-0.13-0.030-0.32-0.040-0.42-0.020-0.13 0.020-0.18-0.030-0.18-0.15 0.040-0.62-0.040-0.57 0.94-0.57h0.9v1.3zM7.58 21.72l0.030 0.38h-0.91v-0.81l0.43 0.030c0.41 0.030 0.42 0.040 0.45 0.4zM9.55 22.2c0.33 0.36 0.010 0.55-0.39 0.25-0.11-0.080-0.35-0.15-0.54-0.15-0.4 0-0.61-0.22-0.62-0.62 0-0.26 0.020-0.27 0.63-0.3l0.62-0.030 0.080 0.34c0.040 0.19 0.14 0.42 0.22 0.51zM12.58 21.75c0.020 0.37-0.010 0.41-0.3 0.55-0.47 0.22-0.51 0.69-0.090 1.11 0.17 0.17 0.31 0.32 0.31 0.35 0 0.020-0.28 0.040-0.61 0.040-0.59 0-0.61-0.010-0.55-0.23 0.030-0.12 0.060-0.68 0.060-1.25v-1.030l1.15 0.060 0.030 0.4zM19.2 21.86c0 0.66-0.1 0.89-0.52 1.1-0.25 0.13-0.32 0.14-0.39 0.020-0.18-0.27-0.3-0.92-0.24-1.24 0.050-0.3 0.090-0.33 0.48-0.37 0.23-0.020 0.48-0.040 0.55-0.050 0.080-0.010 0.12 0.15 0.12 0.54zM26.87 21.51c0.24 0.11 0.43 0.24 0.43 0.27 0 0.040-0.22 0.060-0.48 0.040-0.68-0.050-0.95 0.19-0.95 0.81 0.010 0.39-0.030 0.5-0.24 0.67-0.51 0.4-0.73 0.21-0.73-0.63 0-0.69 0.34-1.1 1.050-1.28 0.45-0.11 0.45-0.11 0.92 0.12zM10.95 22.12c-0.1 1.030-0.42 1.57-0.85 1.43-0.29-0.090-0.43-0.4-0.3-0.65 0.060-0.11 0.11-0.5 0.12-0.85l0.010-0.65h1.1l-0.080 0.72zM14.24 21.71c0.29 0.35 0.33 0.67 0.11 1.080-0.21 0.42-0.53 0.52-0.8 0.25-0.12-0.12-0.14-0.27-0.090-0.64 0.060-0.42 0.040-0.49-0.17-0.64-0.13-0.090-0.31-0.16-0.41-0.16s-0.18-0.050-0.18-0.1c0-0.060 0.28-0.1 0.64-0.1 0.59 0 0.66 0.020 0.9 0.31zM16.91 21.56c0.12 0.15 0.11 0.16-0.070 0.1-0.66-0.21-1.47 0.77-1.020 1.22 0.17 0.17-0.060 0.6-0.37 0.68-0.42 0.1-0.75-0.28-0.75-0.85 0.010-0.79 0.63-1.31 1.56-1.31 0.36 0 0.56 0.050 0.65 0.16zM21 22.65v1.25h-0.65c-0.73 0-0.85-0.15-0.37-0.46 0.39-0.25 0.51-0.45 0.52-0.81 0-0.34-0.18-0.58-0.5-0.68-0.13-0.040-0.2-0.15-0.2-0.31 0-0.23 0.030-0.24 0.6-0.24h0.6v1.25zM22.68 22.62l-0.030 1.23-1.050 0.060v-2.51h1.11l-0.030 1.22zM24.44 21.56c0.39 0.39 0 0.88-0.43 0.53-0.28-0.23-0.37-0.23-0.73-0.050-0.4 0.21-0.38-0.040 0.030-0.38 0.35-0.3 0.89-0.35 1.13-0.1zM17.74 22.63c-0.010 0.88-0.61 1.34-1.6 1.21-0.3-0.030-0.54-0.080-0.54-0.1s0.11-0.14 0.24-0.27c0.17-0.17 0.32-0.23 0.52-0.2 0.16 0.020 0.38-0.020 0.49-0.1 0.18-0.14 0.19-0.18 0.070-0.51-0.15-0.4-0.1-0.53 0.22-0.66 0.37-0.14 0.61 0.11 0.6 0.63zM20.25 22.27c0.22 0.21 0.13 0.71-0.16 0.95-0.31 0.26-1.49 0.24-1.49-0.030 0-0.050 0.060-0.090 0.14-0.090s0.23-0.11 0.34-0.25 0.27-0.25 0.37-0.25c0.090 0 0.16-0.070 0.14-0.18-0.010-0.090-0.010-0.2 0-0.25 0.020-0.14 0.5-0.070 0.66 0.1zM27.61 22.47c0.23 0.62-0.52 1.36-1.39 1.37-0.26 0.010-0.55-0.030-0.66-0.070-0.16-0.060-0.14-0.1 0.17-0.31 0.21-0.14 0.44-0.22 0.55-0.19 0.24 0.060 0.56-0.36 0.46-0.61-0.090-0.24 0.14-0.46 0.47-0.46 0.23 0 0.32 0.060 0.4 0.27zM23.82 22.61c0.090 0.27 0.15 0.3 0.39 0.27 0.26-0.040 0.29-0.020 0.29 0.25 0 0.43-0.26 0.67-0.71 0.67-0.54 0-0.91-0.34-0.93-0.85-0.010-0.37 0.020-0.41 0.34-0.52 0.49-0.17 0.5-0.17 0.62 0.18zM8.98 22.56c0.12 0.080 0.22 0.24 0.22 0.35 0 0.1 0.060 0.19 0.14 0.19 0.070 0 0.21 0.11 0.3 0.25s0.23 0.25 0.31 0.25c0.34 0 0.12 0.18-0.29 0.24-1.15 0.18-2.080-0.62-1.46-1.24 0.24-0.24 0.48-0.25 0.78-0.040zM12.9 22.6c0 0.11 0.050 0.2 0.11 0.2 0.14 0 0.68 0.57 0.61 0.65-0.030 0.030-0.27 0.050-0.54 0.050-0.57 0-0.88-0.24-0.88-0.69 0-0.31 0.1-0.39 0.48-0.4 0.16-0.010 0.22 0.050 0.22 0.19zM27.88 23.38c0.19 0.12 0.040 0.39-0.24 0.46-0.39 0.1-0.48-0.030-0.23-0.3 0.25-0.26 0.28-0.27 0.47-0.16zM17.080 24.66c0.37 0.18 0.43 0.53 0.12 0.61-0.11 0.030-0.2 0.090-0.2 0.14s-0.090 0.090-0.2 0.090-0.2-0.040-0.2-0.090-0.090-0.11-0.2-0.14c-0.12-0.030-0.2-0.14-0.2-0.27s0.080-0.24 0.2-0.27c0.11-0.030 0.2-0.090 0.2-0.14 0-0.13 0.13-0.11 0.48 0.070zM18.65 24.72c0.15 0.22 0.15 0.23-0.16 0.26s-0.31 0.030-0.12 0.49c0.080 0.21-0.35 0.15-0.57-0.070-0.24-0.24-0.25-0.38-0.040-0.68s0.68-0.3 0.89 0zM14.4 24.78c-0.19 0.15-0.21 0.22-0.11 0.4 0.16 0.31 0.15 0.32-0.39 0.32h-0.5v-0.9h0.61c0.61 0 0.61 0 0.39 0.18zM15.88 24.99c0.15 0.48 0.15 0.51-0.020 0.51-0.070 0-0.21-0.1-0.29-0.23l-0.16-0.22-0.16 0.22c-0.090 0.13-0.23 0.23-0.31 0.23-0.11 0-0.13-0.060-0.080-0.23 0.19-0.63 0.23-0.67 0.57-0.67 0.31 0 0.35 0.040 0.45 0.39zM12.3 25.050c0 0.16-0.35 0.21-0.44 0.060-0.080-0.12 0.040-0.21 0.26-0.21 0.1 0 0.18 0.070 0.18 0.15zM20.2 25.050c0 0.080-0.090 0.15-0.2 0.15s-0.2-0.070-0.2-0.15 0.090-0.15 0.2-0.15 0.2 0.070 0.2 0.15zM15.5 25.6c0 0.050-0.040 0.1-0.1 0.1-0.050 0-0.1-0.050-0.1-0.1 0-0.060 0.050-0.1 0.1-0.1 0.060 0 0.1 0.040 0.1 0.1z"></path>
</symbol>
</defs>
</svg>
